<svg aria-hidden="true" style="position: absolute; width: 0; height: 0; overflow: hidden;" version="1.1" xmlns="http://www.w3.org/2000/svg" xmlns:xlink="http://www.w3.org/1999/xlink">
<defs>
<symbol id="icon-chat" viewBox="0 0 32 32">
<title>chat</title>
<path d="M23.268 3.172h-21.466c-0.994 0-1.802 0.808-1.802 1.802v12.879c0 0.994 0.808 1.802 1.802 1.802h1.392v4.794c0 0.305 0.184 0.581 0.466 0.697 0.093 0.039 0.192 0.058 0.289 0.058 0.196 0 0.39-0.077 0.534-0.221l5.328-5.328h1.069c0.417 0 0.755-0.338 0.755-0.755s-0.338-0.755-0.755-0.755c0 0-1.418 0.001-1.433 0.003-0.176 0.012-0.348 0.084-0.483 0.219l-4.261 4.261c0 0-0.001-3.774-0.004-3.794-0.034-0.385-0.357-0.688-0.752-0.688h-2.146c-0.161 0-0.292-0.131-0.292-0.292v-12.879c0-0.161 0.131-0.292 0.292-0.292h21.466c0.161 0 0.292 0.131 0.292 0.292v4.941c0 0.417 0.338 0.755 0.755 0.755s0.755-0.338 0.755-0.755v-4.941c0-0.994-0.808-1.802-1.802-1.802z"></path>
<path d="M30.198 12.406h-15.026c-0.994 0-1.802 0.808-1.802 1.802v8.786c0 0.994 0.808 1.802 1.802 1.802h9.407l3.811 3.811c0.144 0.144 0.337 0.221 0.534 0.221 0.097 0 0.195-0.019 0.289-0.058 0.282-0.117 0.466-0.392 0.466-0.697v-3.277h0.519c0.994 0 1.802-0.808 1.802-1.802v-8.786c0-0.994-0.808-1.802-1.802-1.802zM30.49 22.993c0 0.161-0.131 0.292-0.292 0.292h-1.273c-0.397 0-0.722 0.307-0.752 0.697-0.002 0.017-0.003 2.268-0.003 2.268l-2.741-2.741c-0.003-0.003-0.006-0.006-0.009-0.008-0.011-0.011-0.021-0.020-0.031-0.028-0.133-0.116-0.306-0.188-0.497-0.188h-9.72c-0.161 0-0.292-0.131-0.292-0.292v-8.786c0-0.161 0.131-0.292 0.292-0.292h15.026c0.161 0 0.292 0.131 0.292 0.292v8.786z"></path>
<path d="M22.685 17.846c-0.417 0-0.755 0.338-0.755 0.755s0.338 0.755 0.755 0.755c0.417 0 0.755-0.338 0.755-0.755s-0.338-0.755-0.755-0.755z"></path>
<path d="M19.405 8.163c0 0-13.739 0-13.739 0-0.417 0-0.755 0.338-0.755 0.755s0.338 0.755 0.755 0.755h13.739c0.417 0 0.755-0.338 0.755-0.755s-0.338-0.755-0.755-0.755z"></path>
<path d="M10.88 13.154h-5.214c-0.417 0-0.755 0.338-0.755 0.755s0.338 0.755 0.755 0.755h5.214c0.417 0 0.755-0.338 0.755-0.755s-0.338-0.755-0.755-0.755z"></path>
<path d="M19.177 17.846c-0.417 0-0.755 0.338-0.755 0.755s0.338 0.755 0.755 0.755c0.417 0 0.755-0.338 0.755-0.755s-0.338-0.755-0.755-0.755z"></path>
<path d="M26.192 17.846c-0.417 0-0.755 0.338-0.755 0.755s0.338 0.755 0.755 0.755c0.417 0 0.755-0.338 0.755-0.755s-0.338-0.755-0.755-0.755z"></path>
</symbol>
<symbol id="icon-coin" viewBox="0 0 32 32">
<title>coin</title>
<path d="M16 0c-8.822 0-16 7.178-16 16s7.178 16 16 16 16-7.178 16-16-7.177-16-16-16zM16 29.894c-7.661 0-13.894-6.233-13.894-13.894s6.233-13.894 13.894-13.894 13.894 6.233 13.894 13.894-6.233 13.894-13.894 13.894z"></path>
<path d="M17.053 15.055v-5.978c0.596 0.221 1.116 0.627 1.477 1.176 0.32 0.486 0.973 0.62 1.458 0.3s0.62-0.973 0.3-1.458c-0.756-1.149-1.922-1.928-3.236-2.203v-1.673c0-0.581-0.471-1.053-1.053-1.053s-1.053 0.471-1.053 1.053v1.669c-2.33 0.486-4.086 2.555-4.086 5.028s1.756 4.542 4.086 5.028v5.978c-0.596-0.221-1.116-0.627-1.477-1.176-0.32-0.486-0.973-0.62-1.458-0.3s-0.62 0.973-0.3 1.458c0.756 1.148 1.922 1.928 3.236 2.203v1.672c0 0.581 0.471 1.053 1.053 1.053s1.053-0.471 1.053-1.053v-1.669c2.33-0.486 4.086-2.555 4.086-5.028s-1.756-4.542-4.086-5.028zM12.966 11.917c0-1.301 0.826-2.411 1.981-2.839v5.678c-1.154-0.428-1.981-1.537-1.981-2.839zM17.053 22.922v-5.678c1.154 0.428 1.981 1.537 1.981 2.839s-0.826 2.411-1.981 2.839z"></path>
</symbol>
<symbol id="icon-settings" viewBox="0 0 32 32">
<title>settings</title>
<path d="M30.362 12.641l-2.246-0.381c-0.234-0.755-0.535-1.484-0.902-2.179l1.324-1.852c0.562-0.789 0.475-1.865-0.214-2.547l-1.992-1.992c-0.374-0.374-0.869-0.582-1.397-0.582-0.414 0-0.809 0.127-1.143 0.368l-1.858 1.324c-0.722-0.381-1.477-0.695-2.259-0.929l-0.374-2.219c-0.16-0.956-0.983-1.651-1.952-1.651h-2.814c-0.969 0-1.791 0.695-1.952 1.651l-0.388 2.273c-0.749 0.234-1.477 0.541-2.173 0.916l-1.838-1.324c-0.334-0.241-0.735-0.368-1.15-0.368-0.528 0-1.029 0.207-1.397 0.582l-1.999 1.992c-0.682 0.682-0.775 1.758-0.214 2.547l1.337 1.878c-0.368 0.702-0.662 1.431-0.889 2.186l-2.219 0.374c-0.956 0.16-1.651 0.983-1.651 1.952v2.814c0 0.969 0.695 1.791 1.651 1.952l2.273 0.388c0.234 0.749 0.541 1.477 0.916 2.173l-1.317 1.832c-0.562 0.789-0.475 1.865 0.214 2.547l1.992 1.992c0.374 0.374 0.869 0.582 1.397 0.582 0.414 0 0.809-0.127 1.143-0.368l1.878-1.337c0.675 0.354 1.384 0.642 2.112 0.869l0.374 2.246c0.16 0.956 0.983 1.651 1.952 1.651h2.821c0.969 0 1.791-0.695 1.952-1.651l0.381-2.246c0.755-0.234 1.484-0.535 2.179-0.902l1.852 1.324c0.334 0.241 0.735 0.368 1.15 0.368v0c0.528 0 1.023-0.207 1.397-0.582l1.992-1.992c0.682-0.682 0.775-1.758 0.214-2.547l-1.324-1.858c0.368-0.702 0.675-1.431 0.902-2.179l2.246-0.374c0.956-0.16 1.651-0.983 1.651-1.952v-2.814c0.013-0.969-0.682-1.791-1.638-1.952zM30.208 17.407c0 0.087-0.060 0.16-0.147 0.174l-2.808 0.468c-0.354 0.060-0.635 0.321-0.722 0.662-0.254 0.983-0.642 1.925-1.163 2.801-0.18 0.308-0.167 0.689 0.040 0.983l1.651 2.326c0.047 0.067 0.040 0.167-0.020 0.227l-1.992 1.992c-0.047 0.047-0.094 0.053-0.127 0.053-0.040 0-0.074-0.013-0.1-0.033l-2.32-1.651c-0.287-0.207-0.675-0.221-0.983-0.040-0.876 0.521-1.818 0.909-2.801 1.163-0.348 0.087-0.608 0.374-0.662 0.722l-0.475 2.808c-0.013 0.087-0.087 0.147-0.174 0.147h-2.814c-0.087 0-0.16-0.060-0.174-0.147l-0.468-2.808c-0.060-0.354-0.321-0.635-0.662-0.722-0.956-0.247-1.878-0.628-2.741-1.123-0.14-0.080-0.301-0.12-0.455-0.12-0.181 0-0.368 0.053-0.521 0.167l-2.34 1.665c-0.033 0.020-0.067 0.033-0.1 0.033-0.027 0-0.080-0.007-0.127-0.053l-1.992-1.992c-0.060-0.060-0.067-0.154-0.020-0.227l1.644-2.306c0.207-0.294 0.221-0.682 0.040-0.989-0.521-0.869-0.923-1.812-1.176-2.794-0.094-0.341-0.374-0.602-0.722-0.662l-2.828-0.481c-0.087-0.013-0.147-0.087-0.147-0.174v-2.814c0-0.087 0.060-0.16 0.147-0.174l2.788-0.468c0.354-0.060 0.642-0.321 0.729-0.668 0.247-0.983 0.628-1.932 1.143-2.808 0.181-0.307 0.16-0.689-0.047-0.976l-1.665-2.34c-0.047-0.067-0.040-0.167 0.020-0.227l1.992-1.992c0.047-0.047 0.094-0.053 0.127-0.053 0.040 0 0.074 0.013 0.1 0.033l2.306 1.644c0.294 0.207 0.682 0.221 0.989 0.040 0.869-0.521 1.812-0.923 2.794-1.176 0.341-0.094 0.602-0.374 0.662-0.722l0.481-2.828c0.013-0.087 0.087-0.147 0.174-0.147h2.814c0.087 0 0.16 0.060 0.174 0.147l0.468 2.788c0.060 0.354 0.321 0.642 0.668 0.729 1.009 0.254 1.972 0.648 2.868 1.176 0.308 0.181 0.689 0.167 0.983-0.040l2.306-1.658c0.033-0.020 0.067-0.033 0.1-0.033 0.027 0 0.080 0.007 0.127 0.053l1.992 1.992c0.060 0.060 0.067 0.154 0.020 0.227l-1.651 2.32c-0.207 0.287-0.221 0.675-0.040 0.983 0.521 0.876 0.909 1.818 1.163 2.801 0.087 0.348 0.374 0.608 0.722 0.662l2.808 0.475c0.087 0.013 0.147 0.087 0.147 0.174v2.814h-0.007z"></path>
<path d="M16.003 9.091c-3.81 0-6.905 3.095-6.905 6.905s3.095 6.905 6.905 6.905 6.905-3.095 6.905-6.905-3.095-6.905-6.905-6.905zM16.003 21.097c-2.814 0-5.1-2.286-5.1-5.1s2.286-5.1 5.1-5.1 5.1 2.286 5.1 5.1-2.286 5.1-5.1 5.1z"></path>
</symbol>
<symbol id="icon-arrow" viewBox="0 0 32 32">
<title>arrow</title>
<path d="M25.472 32l-19.357-16 19.357-16z"></path>
</symbol>
<symbol id="icon-accept" viewBox="0 0 32 32">
<title>accept</title>
<path d="M16 0c-8.873 0-16 7.127-16 16s7.127 16 16 16 16-7.127 16-16-7.127-16-16-16zM25.236 10.982v0l-11.636 12.073c-0.145 0.145-0.291 0.218-0.509 0.218s-0.436-0.073-0.509-0.218l-5.673-6.109-0.145-0.145c-0.145-0.145-0.218-0.364-0.218-0.509s0.073-0.364 0.218-0.509l1.018-1.018c0.291-0.291 0.727-0.291 1.018 0l0.073 0.073 4 4.291c0.145 0.145 0.364 0.145 0.509 0l9.745-10.109h0.073c0.291-0.291 0.727-0.291 1.018 0l1.018 1.018c0.291 0.218 0.291 0.655 0 0.945z"></path>
</symbol>
<symbol id="icon-cancel" viewBox="0 0 32 32">
<title>cancel</title>
<path d="M27.319 4.681c-6.241-6.241-16.396-6.242-22.638 0s-6.241 16.396 0 22.638 16.396 6.242 22.638 0c6.241-6.242 6.241-16.397 0-22.638zM22.312 22.312c-0.481 0.481-1.26 0.481-1.741 0l-4.571-4.571-4.789 4.789c-0.481 0.481-1.26 0.481-1.741 0s-0.481-1.26 0-1.741l4.789-4.789-4.571-4.571c-0.481-0.481-0.481-1.261 0-1.741s1.26-0.481 1.741 0l4.571 4.571 4.353-4.353c0.481-0.481 1.26-0.481 1.741 0s0.481 1.26 0 1.741l-4.353 4.353 4.571 4.571c0.481 0.481 0.481 1.26 0 1.741z"></path>
</symbol>
<symbol id="icon-go-to-chat" viewBox="0 0 32 32">
<title>go-to-chat</title>
<path d="M16 0c-8.836 0-16 7.164-16 16s7.164 16 16 16c8.836 0 16-7.164 16-16s-7.164-16-16-16zM9.545 22.531l-3.966 1.062 1.086-4.051c-0.748-1.285-1.179-2.779-1.179-4.373 0-4.808 3.898-8.706 8.706-8.706s8.706 3.898 8.706 8.706-3.898 8.706-8.706 8.706c-1.71 0-3.303-0.494-4.648-1.345zM26.429 25.278l-3.607-0.966c-1.224 0.774-2.673 1.224-4.227 1.224-1.108 0-2.162-0.229-3.12-0.64 4.807-0.629 8.532-4.75 8.532-9.726 0-1.442-0.316-2.811-0.876-4.046 2.046 1.432 3.385 3.805 3.385 6.491 0 1.45-0.392 2.809-1.072 3.978l0.987 3.684z"></path>
</symbol>
<symbol id="icon-sort-down" viewBox="0 0 32 32">
<title>sort-down</title>
<path d="M31.406 7.594c-0.396-0.396-0.864-0.594-1.406-0.594h-28c-0.542 0-1.011 0.198-1.406 0.594s-0.594 0.865-0.594 1.407c0 0.542 0.198 1.010 0.594 1.406l14 14c0.396 0.396 0.865 0.594 1.406 0.594s1.011-0.198 1.406-0.594l14-14c0.395-0.396 0.594-0.864 0.594-1.406s-0.199-1.010-0.594-1.406z"></path>
</symbol>
<symbol id="icon-denied" viewBox="0 0 84 84">
<title>denied</title>
<path d="M42,0C18.804,0,0,18.807,0,42c0,23.197,18.804,42,42,42c23.195,0,42-18.803,42-42 C84,18.807,65.195,0,42,0z M67.248,36.889l0.002,10.223h-50.5V36.891L67.248,36.889z"/>
</symbol>
<symbol id="icon-reload" viewBox="0 0 32 32">
<title>reload</title>
<path d="M7.329 6.346c4.724-4.274 11.795-4.339 16.584-0.438l-3.797 0.144c-0.49 0.020-0.869 0.425-0.849 0.915 0.020 0.477 0.412 0.849 0.882 0.849 0.013 0 0.020 0 0.033 0l5.829-0.216c0.477-0.020 0.849-0.405 0.849-0.882v-0.065c0-0.013 0-0.020 0-0.033v-0.007l-0.216-5.763c-0.020-0.49-0.431-0.869-0.915-0.849-0.49 0.020-0.869 0.425-0.849 0.915l0.137 3.614c-2.372-1.941-5.293-3.065-8.416-3.221-3.868-0.196-7.587 1.13-10.455 3.731-3.947 3.574-5.62 9.011-4.365 14.186 0.098 0.405 0.457 0.673 0.856 0.673 0.072 0 0.137-0.007 0.209-0.026 0.47-0.118 0.765-0.595 0.647-1.065-1.098-4.548 0.366-9.325 3.836-12.461z"></path>
<path d="M30.219 12.776c-0.118-0.47-0.595-0.765-1.065-0.647s-0.765 0.595-0.647 1.065c1.104 4.548-0.366 9.325-3.836 12.461-2.437 2.202-5.495 3.287-8.541 3.287-2.908 0-5.809-0.987-8.148-2.934l3.842-0.346c0.484-0.046 0.843-0.47 0.797-0.961s-0.47-0.843-0.961-0.797l-5.809 0.523c-0.484 0.046-0.843 0.47-0.797 0.961l0.523 5.809c0.039 0.457 0.425 0.804 0.876 0.804 0.026 0 0.052 0 0.078-0.007 0.484-0.046 0.843-0.47 0.797-0.961l-0.314-3.535c2.372 1.921 5.28 3.039 8.384 3.195 0.248 0.013 0.497 0.020 0.738 0.020 3.601 0 7.025-1.32 9.717-3.751 3.947-3.574 5.62-9.005 4.365-14.186z"></path>
</symbol>
</defs>
</svg>




